<svg width="48" height="48" viewBox="0 0 48 48" fill="none" xmlns="http://www.w3.org/2000/svg">
<path d="M33.4286 1.71436L27.4286 20.5715L46.2857 14.5715C46.2857 11.1616 44.9311 7.89131 42.5199 5.48013C40.1088 3.06894 36.8385 1.71436 33.4286 1.71436V1.71436Z" stroke="#D4E267" stroke-width="1.71429" stroke-linecap="round" stroke-linejoin="round"/>
<path d="M25.7143 1.78293L24 1.71436C19.5923 1.71436 15.2836 3.02139 11.6187 5.47018C7.95386 7.91896 5.09744 11.3995 3.41069 15.4717C1.72394 19.5439 1.2826 24.0248 2.1425 28.3478C3.0024 32.6708 5.12491 36.6417 8.24162 39.7585C11.3583 42.8752 15.3293 44.9977 19.6523 45.8576C23.9753 46.7175 28.4562 46.2761 32.5284 44.5894C36.6006 42.9026 40.0811 40.0462 42.5299 36.3813C44.9787 32.7165 46.2857 28.4078 46.2857 24.0001C46.2857 23.4172 46.2857 22.8686 46.2857 22.2858" stroke="#D4E267" stroke-width="1.71429" stroke-linecap="round" stroke-linejoin="round"/>
<path d="M18.8571 34.2857C19.8039 34.2857 20.5714 33.5182 20.5714 32.5715C20.5714 31.6247 19.8039 30.8572 18.8571 30.8572C17.9104 30.8572 17.1429 31.6247 17.1429 32.5715C17.1429 33.5182 17.9104 34.2857 18.8571 34.2857Z" stroke="#D4E267" stroke-width="1.71429" stroke-linecap="round" stroke-linejoin="round"/>
<path d="M13.7143 18.8573C14.6611 18.8573 15.4286 18.0898 15.4286 17.143C15.4286 16.1962 14.6611 15.4287 13.7143 15.4287C12.7675 15.4287 12 16.1962 12 17.143C12 18.0898 12.7675 18.8573 13.7143 18.8573Z" stroke="#D4E267" stroke-width="1.71429" stroke-linecap="round" stroke-linejoin="round"/>
<path d="M36 29.1429C36.9468 29.1429 37.7143 28.3754 37.7143 27.4286C37.7143 26.4819 36.9468 25.7144 36 25.7144C35.0532 25.7144 34.2857 26.4819 34.2857 27.4286C34.2857 28.3754 35.0532 29.1429 36 29.1429Z" stroke="#D4E267" stroke-width="1.71429" stroke-linecap="round" stroke-linejoin="round"/>
</svg>
