<svg width="25" height="24" viewBox="0 0 25 24" fill="none" xmlns="http://www.w3.org/2000/svg">
<path d="M1.14001 18.7031V16.1035H1.00001V18.7031H1.14001Z" fill="#AC2E2E" stroke="#AC2E2E"/>
<path d="M11.93 10.1016H11.43V9.60157V0.5H0.999962V10.2988H1.63996H2.13996V10.7988V12.7012H2.78746H3.28746V13.2012V13.8984H3.42746V13.2012V12.7012H3.92746H11.93H12.43V13.2012V15.1035H12.57V13.2012V12.7012H13.07H13.71V11.2988H13.07H12.57V10.7988V10.1016H11.93ZM1.63996 10.1016H1.13996V9.60157V1.19724V0.697243H1.63996H5.06746H5.56746V1.19724V3.09961H6.85496V1.19724V0.697243H7.35496H10.7825H11.2825V1.19724V9.60157V10.1016H10.7825H1.63996Z" fill="#AC2E2E" stroke="#AC2E2E"/>
<path d="M2.28748 15.1036V14.8984H2.13998V15.1036H2.28748Z" fill="#AC2E2E" stroke="#AC2E2E"/>
<path d="M3.92755 19.7031H3.42755V19.2031V17.3008H3.28755V19.2031V19.7031H2.78755H2.14005V19.9004H2.78755H3.28755V20.4004V21.1055H3.42755V20.4004V19.9004H3.92755H9.64255H10.1425V20.4004V21.1055H10.2825V20.4004V19.9004H10.7825H15.3575H15.8575V20.4004V21.1055H15.9975V20.4004V19.9004H16.4975H19.425V19.7031H16.4975H15.9975V19.2031V18.498H14.21H13.71V17.998V16.1035H13.57V17.998V18.498H13.07H11.93H11.43V17.998V17.3008H11.2825V19.2031V19.7031H10.7825H3.92755Z" fill="#AC2E2E" stroke="#AC2E2E"/>
<path d="M3.42749 5.50199V5.29688H3.28749V5.50199H3.42749Z" fill="#AC2E2E" stroke="#AC2E2E"/>
<path d="M4.5675 22.3028V22.1055H4.4275V22.3028H4.5675Z" fill="#AC2E2E" stroke="#AC2E2E"/>
<path d="M4.5675 16.3008V16.1035H4.4275V16.3008H4.5675Z" fill="#AC2E2E" stroke="#AC2E2E"/>
<path d="M5.71497 7.89646V7.69922H3.28746V7.89646H5.71497Z" fill="#AC2E2E" stroke="#AC2E2E"/>
<path d="M5.71497 5.50199V5.29688H5.56747V5.50199H5.71497Z" fill="#AC2E2E" stroke="#AC2E2E"/>
<path d="M7.995 23.5V23.3028H5.5675V23.5H7.995Z" fill="#AC2E2E" stroke="#AC2E2E"/>
<path d="M7.995 17.498V17.3008H6.715V17.498H7.995Z" fill="#AC2E2E" stroke="#AC2E2E"/>
<path d="M9.14246 15.1036V14.8984H5.56746V15.1036H9.14246Z" fill="#AC2E2E" stroke="#AC2E2E"/>
<path d="M9.14246 22.3028V22.1055H8.99496V22.3028H9.14246Z" fill="#AC2E2E" stroke="#AC2E2E"/>
<path d="M10.2825 16.3008V16.1035H10.1425V16.3008H10.2825Z" fill="#AC2E2E" stroke="#AC2E2E"/>
<path d="M17.1375 22.3028V22.1055H16.9975V22.3028H17.1375Z" fill="#AC2E2E" stroke="#AC2E2E"/>
<path d="M17.6375 16.1036H17.1375V15.6036V8.89648H16.9975V17.4981H17.1375V16.8008V16.3008H17.6375H18.285V16.1036H17.6375Z" fill="#AC2E2E" stroke="#AC2E2E"/>
<path d="M15.9975 7.19922V6.69922H16.4975H17.1375V4.79685V4.29685H17.6375H19.425V4.09961H16.9975V4.79685V5.29685H16.4975H15.8575V6.00197V6.50197H15.3575H13.57V6.69922H15.3575H15.8575V7.19922V7.89646H15.9975V7.19922Z" fill="#AC2E2E" stroke="#AC2E2E"/>
<path d="M20.5725 23.5V23.3028H18.1375V23.5H20.5725Z" fill="#AC2E2E" stroke="#AC2E2E"/>
<path d="M19.925 8.89644H19.425V8.39644V6.50195H19.285V10.2988H19.425V9.60156V9.10156H19.925H21.7125V8.89644H19.925Z" fill="#AC2E2E" stroke="#AC2E2E"/>
<path d="M20.5725 12.7012V11.2988H20.425V12.7012H20.5725Z" fill="#AC2E2E" stroke="#AC2E2E"/>
<path d="M21.7125 5.50199V5.29688H20.425V5.50199H21.7125Z" fill="#AC2E2E" stroke="#AC2E2E"/>
<path d="M21.7125 22.3028V22.1055H21.5725V22.3028H21.7125Z" fill="#AC2E2E" stroke="#AC2E2E"/>
<path d="M21.5725 14.3984V14.8984H21.0725H19.285V15.1035H22.8525V14.8984H22.2125H21.7125V14.3984V13.7012H21.5725V14.3984Z" fill="#AC2E2E" stroke="#AC2E2E"/>
<path d="M23.8525 17.998V18.498H23.3525H20.425V18.7031H22.2125H22.7125V19.2031V21.1055H22.8525V19.2031V18.7031H23.3525H24V16.1035H23.8525V17.998Z" fill="#AC2E2E" stroke="#AC2E2E"/>
<path d="M22.8525 7.89644V6.50195H22.7125V7.89644H22.8525Z" fill="#AC2E2E" stroke="#AC2E2E"/>
</svg>
