<svg width="25" height="22" viewBox="0 0 25 22" fill="none" xmlns="http://www.w3.org/2000/svg">
<path d="M7.83716 7.99997C7.97085 6.80479 8.38213 5.65742 9.03815 4.64947C9.69418 3.64152 10.5768 2.80091 11.6155 2.19476C12.6542 1.58861 13.8202 1.23371 15.0205 1.15839C16.2208 1.08308 17.4221 1.28943 18.5284 1.76099C19.6347 2.23254 20.6155 2.95622 21.3924 3.87426C22.1692 4.7923 22.7207 5.87926 23.0028 7.04835C23.2848 8.21745 23.2896 9.4363 23.0168 10.6076C22.744 11.7789 22.2011 12.8701 21.4314 13.7943" stroke="#AC2E2E" stroke-width="1.71429" stroke-linecap="round" stroke-linejoin="round"/>
<path d="M15.5 5.42853V8.8571H18.0714" stroke="#AC2E2E" stroke-width="1.71429" stroke-linecap="round" stroke-linejoin="round"/>
<path d="M1.78577 12.2857H8.64291C9.20572 12.2857 9.76301 12.3966 10.283 12.6119C10.8029 12.8273 11.2754 13.143 11.6734 13.541C12.0713 13.9389 12.387 14.4114 12.6024 14.9313C12.8178 15.4513 12.9286 16.0086 12.9286 16.5714V16.5714" stroke="#AC2E2E" stroke-width="1.71429" stroke-linecap="round" stroke-linejoin="round"/>
<path d="M7.78577 16.5714H16.3572C17.2665 16.5714 18.1386 16.9326 18.7816 17.5756C19.4245 18.2186 19.7858 19.0907 19.7858 20C19.7858 20.2273 19.6955 20.4453 19.5347 20.6061C19.374 20.7668 19.156 20.8571 18.9286 20.8571H1.78577" stroke="#AC2E2E" stroke-width="1.71429" stroke-linecap="round" stroke-linejoin="round"/>
</svg>
