<svg width="25" height="24" viewBox="0 0 25 24" fill="none" xmlns="http://www.w3.org/2000/svg">
<path d="M3.07141 14.5714V22.2857C3.07141 22.513 3.16172 22.731 3.32246 22.8918C3.48321 23.0525 3.70123 23.1428 3.92855 23.1428H21.0714C21.2987 23.1428 21.5168 23.0525 21.6775 22.8918C21.8382 22.731 21.9286 22.513 21.9286 22.2857V14.5714" stroke="#AC2E2E" stroke-width="1.71429" stroke-linecap="round" stroke-linejoin="round"/>
<path d="M14.2142 14.5714V23.1428" stroke="#AC2E2E" stroke-width="1.71429" stroke-linecap="round" stroke-linejoin="round"/>
<path d="M3.07141 17.1428H14.2143" stroke="#AC2E2E" stroke-width="1.71429" stroke-linecap="round" stroke-linejoin="round"/>
<path d="M1.35706 6.85712L3.92848 0.857117H21.0713L23.6428 6.85712H1.35706Z" stroke="#AC2E2E" stroke-width="1.71429" stroke-linecap="round" stroke-linejoin="round"/>
<path d="M8.64281 6.85712V8.5714C8.64281 9.48072 8.28158 10.3528 7.6386 10.9958C6.99562 11.6388 6.12355 12 5.21424 12H4.73424C3.82492 12 2.95285 11.6388 2.30987 10.9958C1.66689 10.3528 1.30566 9.48072 1.30566 8.5714V6.85712" stroke="#AC2E2E" stroke-width="1.71429" stroke-linecap="round" stroke-linejoin="round"/>
<path d="M16.3571 6.85712V8.5714C16.3571 9.48072 15.9959 10.3528 15.3529 10.9958C14.7099 11.6388 13.8379 12 12.9285 12H12.0714C11.1621 12 10.29 11.6388 9.64703 10.9958C9.00405 10.3528 8.64282 9.48072 8.64282 8.5714V6.85712" stroke="#AC2E2E" stroke-width="1.71429" stroke-linecap="round" stroke-linejoin="round"/>
<path d="M23.6428 6.85712V8.5714C23.6428 9.48072 23.2815 10.3528 22.6386 10.9958C21.9956 11.6388 21.1235 12 20.2142 12H19.7856C18.8763 12 18.0042 11.6388 17.3613 10.9958C16.7183 10.3528 16.3571 9.48072 16.3571 8.5714V6.85712" stroke="#AC2E2E" stroke-width="1.71429" stroke-linecap="round" stroke-linejoin="round"/>
</svg>
