<svg width="24" height="24" viewBox="0 0 24 24" fill="none" xmlns="http://www.w3.org/2000/svg">
<path d="M0.640015 18.7849V16.3574H0.500014V18.7849H0.640015Z" fill="white" stroke="white"/>
<path d="M11.43 10.6425H10.93V10.1425V1.5H0.500023V10.7825H1.14002H1.64002V11.2825V13.07H2.28752H2.78752V13.57V14.21H2.92752V13.57V13.07H3.42752H11.43H11.93V13.57V15.3575H12.07V13.57V13.07H12.57H13.21V11.7825H12.57H12.07V11.2825V10.6425H11.43ZM1.14002 10.6425H0.640023V10.1425V2.14V1.64H1.14002H4.56752H5.06752V2.14V3.9275H6.35502V2.14V1.64H6.85502H10.2825H10.7825V2.14V10.1425V10.6425H10.2825H1.14002Z" fill="white" stroke="white"/>
<path d="M1.78748 15.3575V15.21H1.63998V15.3575H1.78748Z" fill="white" stroke="white"/>
<path d="M3.42749 19.7849H2.92749V19.2849V17.4974H2.78749V19.2849V19.7849H2.28749H1.63999V19.9249H2.28749H2.78749V20.4249V21.0724H2.92749V20.4249V19.9249H3.42749H9.14249H9.64249V20.4249V21.0724H9.78249V20.4249V19.9249H10.2825H14.8575H15.3575V20.4249V21.0724H15.4975V20.4249V19.9249H15.9975H18.925V19.7849H15.9975H15.4975V19.2849V18.6374H13.71H13.21V18.1374V16.3574H13.07V18.1374V18.6374H12.57H11.43H10.93V18.1374V17.4974H10.7825V19.2849V19.7849H10.2825H3.42749Z" fill="white" stroke="white"/>
<path d="M2.92749 6.21488V6.06738H2.78749V6.21488H2.92749Z" fill="white" stroke="white"/>
<path d="M4.0675 22.2125V22.0725H3.9275V22.2125H4.0675Z" fill="white" stroke="white"/>
<path d="M4.0675 16.4974V16.3574H3.9275V16.4974H4.0675Z" fill="white" stroke="white"/>
<path d="M5.21503 8.49498V8.35498H2.78753V8.49498H5.21503Z" fill="white" stroke="white"/>
<path d="M5.21503 6.21488V6.06738H5.06753V6.21488H5.21503Z" fill="white" stroke="white"/>
<path d="M7.495 23.3524V23.2124H5.0675V23.3524H7.495Z" fill="white" stroke="white"/>
<path d="M7.495 17.6376V17.4976H6.215V17.6376H7.495Z" fill="white" stroke="white"/>
<path d="M8.64252 15.3575V15.21H5.06752V15.3575H8.64252Z" fill="white" stroke="white"/>
<path d="M8.64252 22.2125V22.0725H8.49502V22.2125H8.64252Z" fill="white" stroke="white"/>
<path d="M9.78247 16.4974V16.3574H9.64247V16.4974H9.78247Z" fill="white" stroke="white"/>
<path d="M16.6375 22.2125V22.0725H16.4975V22.2125H16.6375Z" fill="white" stroke="white"/>
<path d="M17.1375 16.3576H16.6375V15.8576V9.49512H16.4975V17.6376H16.6375V16.9976V16.4976H17.1375H17.785V16.3576H17.1375Z" fill="white" stroke="white"/>
<path d="M15.4975 7.85499V7.35499H15.9975H16.6375V5.56749V5.06749H17.1375H18.925V4.92749H16.4975V5.56749V6.06749H15.9975H15.3575V6.71499V7.21499H14.8575H13.07V7.35499H14.8575H15.3575V7.85499V8.49499H15.4975V7.85499Z" fill="white" stroke="white"/>
<path d="M20.0725 23.3524V23.2124H17.6375V23.3524H20.0725Z" fill="white" stroke="white"/>
<path d="M19.425 9.49509H18.925V8.99509V7.21509H18.785V10.7826H18.925V10.1426V9.64259H19.425H21.2125V9.49509H19.425Z" fill="white" stroke="white"/>
<path d="M20.0725 13.07V11.7825H19.925V13.07H20.0725Z" fill="white" stroke="white"/>
<path d="M21.2125 6.21488V6.06738H19.925V6.21488H21.2125Z" fill="white" stroke="white"/>
<path d="M21.2125 22.2125V22.0725H21.0725V22.2125H21.2125Z" fill="white" stroke="white"/>
<path d="M21.0725 14.7101V15.2101H20.5725H18.785V15.3576H22.3525V15.2101H21.7125H21.2125V14.7101V14.0701H21.0725V14.7101Z" fill="white" stroke="white"/>
<path d="M23.3525 18.1374V18.6374H22.8525H19.925V18.7849H21.7125H22.2125V19.2849V21.0724H22.3525V19.2849V18.7849H22.8525H23.5V16.3574H23.3525V18.1374Z" fill="white" stroke="white"/>
<path d="M22.3525 8.49509V7.21509H22.2125V8.49509H22.3525Z" fill="white" stroke="white"/>
</svg>
