<svg width="24" height="18" viewBox="0 0 24 18" fill="none" xmlns="http://www.w3.org/2000/svg">
<path d="M7.57776 17.9257C16.5746 17.9257 21.4946 11.058 21.4946 5.1026C21.4946 4.90754 21.4902 4.71335 21.4808 4.52005C22.4358 3.88389 23.2659 3.09002 23.9206 2.18629C23.0442 2.54523 22.1011 2.78686 21.1117 2.89582C22.1216 2.33786 22.8968 1.45524 23.2626 0.403061C22.3176 0.919281 21.271 1.29447 20.1567 1.49704C19.2641 0.621031 17.9934 0.0731201 16.5864 0.0731201C13.8852 0.0731201 11.6948 2.09146 11.6948 4.57935C11.6948 4.93301 11.7377 5.27701 11.8217 5.60698C7.75646 5.41851 4.15175 3.62513 1.73927 0.89819C1.3192 1.56422 1.07698 2.33788 1.07698 3.1634C1.07698 4.727 1.94051 6.10735 3.25363 6.91488C2.45115 6.89203 1.69731 6.68905 1.03843 6.35121C1.03771 6.37011 1.0377 6.38855 1.0377 6.40876C1.0377 8.59141 2.7237 10.4137 4.96178 10.8267C4.55078 10.9299 4.11834 10.9853 3.67202 10.9853C3.35734 10.9853 3.05074 10.9567 2.75274 10.904C3.37545 12.6947 5.18114 13.9978 7.32194 14.0342C5.64786 15.2433 3.53899 15.9634 1.24698 15.9634C0.852665 15.9634 0.463117 15.9427 0.0802612 15.901C2.24498 17.1795 4.81539 17.9254 7.57803 17.9254" fill="#AC2E2E"/>
</svg>
