<svg width="24" height="18" viewBox="0 0 24 18" fill="none" xmlns="http://www.w3.org/2000/svg">
<path d="M7.57782 17.9259C16.5746 17.9259 21.4946 11.0582 21.4946 5.10273C21.4946 4.90766 21.4903 4.71348 21.4808 4.52017C22.4359 3.88401 23.2659 3.09014 23.9207 2.18642C23.0443 2.54535 22.1011 2.78698 21.1118 2.89594C22.1216 2.33798 22.8969 1.45536 23.2627 0.403183C22.3176 0.919403 21.2711 1.2946 20.1567 1.49716C19.2642 0.621153 17.9935 0.0732422 16.5864 0.0732422C13.8853 0.0732422 11.6949 2.09158 11.6949 4.57947C11.6949 4.93313 11.7378 5.27714 11.8217 5.60711C7.75652 5.41863 4.15181 3.62525 1.73933 0.898312C1.31926 1.56434 1.07705 2.33801 1.07705 3.16352C1.07705 4.72712 1.94057 6.10747 3.25369 6.915C2.45121 6.89216 1.69737 6.68918 1.03849 6.35133C1.03777 6.37024 1.03776 6.38867 1.03776 6.40888C1.03776 8.59153 2.72377 10.4139 4.96185 10.8268C4.55084 10.93 4.11841 10.9854 3.67209 10.9854C3.3574 10.9854 3.0508 10.9569 2.7528 10.9041C3.37551 12.6948 5.1812 13.9979 7.322 14.0344C5.64792 15.2434 3.53905 15.9635 1.24705 15.9635C0.852726 15.9635 0.463178 15.9428 0.0803223 15.9011C2.24504 17.1796 4.81545 17.9256 7.57809 17.9256" fill="#0A033C"/>
</svg>
